<?xml version="1.0" encoding="utf-8"?>
<!-- Generator: Adobe Illustrator 25.0.0, SVG Export Plug-In . SVG Version: 6.00 Build 0)  -->
<svg version="1.1" id="Слой_1" xmlns="http://www.w3.org/2000/svg" xmlns:xlink="http://www.w3.org/1999/xlink" x="0px" y="0px"
	 viewBox="0 0 210 210" style="enable-background:new 0 0 210 210;" xml:space="preserve">
<style type="text/css">
	.st0{fill:#101123;}
	.st1{fill-rule:evenodd;clip-rule:evenodd;fill:#101123;}
</style>
<path class="st0" d="M167.5,103.7v-2.6c0.8,0.2,1.3,0.7,1.3,1.4c0,0.4-0.1,0.6-0.4,0.9C168.2,103.6,167.9,103.7,167.5,103.7z"/>
<path class="st0" d="M167.5,128.1v2.6c0.4,0,0.7-0.1,0.9-0.3c0.2-0.2,0.4-0.5,0.4-0.9C168.8,128.8,168.4,128.3,167.5,128.1z"/>
<path class="st1" d="M130,185c44.2,0,80-35.8,80-80c0-44.2-35.8-80-80-80c-40.6,0-74.2,30.3-79.3,69.5c4.3-4.6,9.9-6.9,16.6-6.9
	c6.3,0,10.7,1.4,13.5,4.1h0.2c-0.1-0.7-0.1-1.4-0.1-2.3V69h17.3v72H81.9v-4.6l0.1-2.9h-0.2c-3.3,5-8.2,7.4-14.9,7.4
	c-3.4,0-6.5-0.6-9.3-1.8C70.5,166.3,98.1,185,130,185z M120.4,88.8h-17.3v33.1c0,6.7,1.6,11.6,4.9,14.7c3.3,3,7.8,4.5,13.4,4.5
	c3.5,0,6.7-0.8,9.6-2.4c2.9-1.6,5.1-3.7,6.5-6.4h0.2l-0.2,3.2v5.6H154V88.8h-17.3v22.6c0,4-0.9,7.4-2.8,10.1c-1.9,2.6-4.6,4-8.1,4
	c-3.7,0-5.5-2.2-5.5-6.7V88.8z M169.6,90.3c-0.9-0.9-1.9-1.3-3.1-1.3c-1.2,0-2.3,0.4-3.2,1.3c-0.9,0.9-1.3,2.1-1.3,3.5
	c0,0.7,0.1,1.4,0.4,2.1c0.3,0.7,0.6,1.2,1,1.6l2-1.1c-0.7-0.8-1-1.6-1-2.4c0-0.7,0.2-1.2,0.6-1.6c0.4-0.4,0.9-0.6,1.5-0.6
	c0.6,0,1,0.2,1.4,0.5c0.4,0.4,0.6,0.9,0.6,1.5c0,0.8-0.3,1.5-0.8,2l1.9,1.2c0.4-0.4,0.7-0.9,1-1.5c0.2-0.6,0.3-1.2,0.3-1.9
	C170.9,92.3,170.5,91.2,169.6,90.3z M169.6,99.3c-0.8-0.8-1.9-1.2-3.2-1.2c-1.2,0-2.3,0.4-3.1,1.3s-1.3,2-1.3,3.5
	c0,0.7,0.1,1.3,0.3,2c0.2,0.7,0.5,1.2,0.9,1.7l2-1.1c-0.6-0.9-0.9-1.7-0.9-2.4c0-0.5,0.1-0.9,0.4-1.3c0.3-0.4,0.6-0.6,1.1-0.7v5.5
	c0.4,0,0.7,0.1,0.9,0.1c1.2,0,2.2-0.4,3-1.1c0.8-0.7,1.2-1.7,1.2-2.9C170.9,101.3,170.5,100.2,169.6,99.3z M162.2,108.1h8.5v2.8H170
	l-0.5,0v0c1,0.6,1.5,1.5,1.5,2.8c0,2.1-1.1,3.1-3.2,3.1h-5.5v-2.9h5c0.7,0,1.1-0.3,1.1-1c0-0.6-0.2-1.1-0.6-1.4
	c-0.4-0.3-1-0.5-1.6-0.5h-3.8V108.1z M168.3,119.2h-3c-0.5,0-0.9,0.1-1.2,0.2c-0.4,0.1-0.7,0.3-0.9,0.6c-0.2,0.2-0.4,0.5-0.6,0.7
	c-0.2,0.3-0.3,0.6-0.3,0.9c-0.1,0.3-0.1,0.6-0.1,0.9c0,0.3,0,0.5,0,0.8c0,0.1,0,0.4,0,0.8h2.5c0-0.1,0-0.3,0-0.4
	c0-1,0.4-1.5,1.1-1.5h2.6v1.8h2.2v-1.8h2.4v-2.8h-2.4v-1.2h-2.2V119.2z M166.5,125.1c1.3,0,2.3,0.4,3.2,1.2c0.8,0.8,1.3,1.9,1.3,3.3
	c0,1.2-0.4,2.2-1.2,2.9c-0.8,0.7-1.7,1.1-3,1.1c-0.2,0-0.5,0-0.9-0.1v-5.5c-0.5,0.1-0.9,0.3-1.1,0.7c-0.3,0.4-0.4,0.8-0.4,1.3
	c0,0.7,0.3,1.5,0.9,2.4l-2,1.1c-0.4-0.5-0.7-1-0.9-1.7c-0.2-0.7-0.3-1.3-0.3-2c0-1.5,0.4-2.6,1.3-3.5
	C164.2,125.5,165.2,125.1,166.5,125.1z M170.7,135.1h-8.5v2.9h3.3c0.8,0,1.4,0.2,1.9,0.6c0.5,0.4,0.7,1,0.7,1.8c0,0.3,0,0.5-0.1,0.6
	h2.8c0-0.1,0-0.2,0-0.3c0-0.6-0.2-1.2-0.6-1.7c-0.4-0.5-0.9-0.9-1.5-1v0l0.5,0h1.4V135.1z"/>
<path class="st0" d="M64,105.3c-1.9,2.2-2.9,5.2-2.9,8.9c0,3.8,0.9,6.8,2.8,9.1c1.9,2.3,4.3,3.5,7.3,3.5c2.9,0,5.3-1.1,7.2-3.2
	c1.9-2.1,2.9-5.2,2.9-9.4c0-3.3-0.9-6.1-2.7-8.5c-1.7-2.4-4.2-3.7-7.4-3.7C68.4,102.1,66,103.2,64,105.3z"/>
<path class="st1" d="M7.3,95.6c-4.9,5-7.3,11.4-7.3,19c0,7.3,2.5,13.5,7.6,18.8c5.1,5.3,11.9,7.9,20.6,7.9c4,0,7.9-0.7,11.9-2
	c4-1.3,7.3-3.1,10.1-5.4l-6.4-12c-5.2,3.4-9.9,5.2-14.2,5.2c-2.9,0-5.5-0.8-7.8-2.3c-2.2-1.6-3.6-3.9-4.2-6.8h32.4
	c0.3-2.4,0.4-4.2,0.4-5.3c0-7.3-2.1-13.2-6.4-17.7c-4.2-4.6-10-6.9-17.4-6.9C18.6,88,12.1,90.5,7.3,95.6z M33.4,108.2H18.1
	c1.1-5.1,3.9-7.6,8.3-7.6c2.1,0,3.8,0.7,5.1,2.2C32.7,104.2,33.4,106,33.4,108.2z"/>
</svg>
